<?xml version="1.0" encoding="UTF-8"?>
<!DOCTYPE svg PUBLIC "-//W3C//DTD SVG 1.1//EN" "http://www.w3.org/Graphics/SVG/1.1/DTD/svg11.dtd">
<svg xmlns="http://www.w3.org/2000/svg" version="1.1" width="512px" height="512px" style="shape-rendering:geometricPrecision; text-rendering:geometricPrecision; image-rendering:optimizeQuality; fill-rule:evenodd; clip-rule:evenodd" xmlns:xlink="http://www.w3.org/1999/xlink">
<g><path style="opacity:0.999" fill="#6080ea" d="M 121.5,31.5 C 139.833,50.1667 158.167,68.8333 176.5,87.5C 168.167,87.5 159.833,87.5 151.5,87.5C 135.527,71.8607 119.527,56.194 103.5,40.5C 103.5,37.5 103.5,34.5 103.5,31.5C 109.5,31.5 115.5,31.5 121.5,31.5 Z"/></g>
<g><path style="opacity:1" fill="#6086ec" d="M 121.5,31.5 C 128.833,31.5 136.167,31.5 143.5,31.5C 161.833,50.1667 180.167,68.8333 198.5,87.5C 191.167,87.5 183.833,87.5 176.5,87.5C 158.167,68.8333 139.833,50.1667 121.5,31.5 Z"/></g>
<g><path style="opacity:1" fill="#5f8ced" d="M 143.5,31.5 C 151.167,31.5 158.833,31.5 166.5,31.5C 184.833,50.1667 203.167,68.8333 221.5,87.5C 213.833,87.5 206.167,87.5 198.5,87.5C 180.167,68.8333 161.833,50.1667 143.5,31.5 Z"/></g>
<g><path style="opacity:1" fill="#5f92ee" d="M 166.5,31.5 C 173.833,31.5 181.167,31.5 188.5,31.5C 206.833,50.1667 225.167,68.8333 243.5,87.5C 236.167,87.5 228.833,87.5 221.5,87.5C 203.167,68.8333 184.833,50.1667 166.5,31.5 Z"/></g>
<g><path style="opacity:0.998" fill="#5e99f0" d="M 188.5,31.5 C 231.013,26.3503 250.68,45.017 247.5,87.5C 246.167,87.5 244.833,87.5 243.5,87.5C 225.167,68.8333 206.833,50.1667 188.5,31.5 Z"/></g>
<g><path style="opacity:0.997" fill="#5cb8f6" d="M 329.5,31.5 C 344.5,47.1667 359.833,62.5 375.5,77.5C 369.557,79.2921 363.223,80.2921 356.5,80.5C 344.167,68.5 331.833,56.5 319.5,44.5C 317.396,35.642 320.729,31.3086 329.5,31.5 Z"/></g>
<g><path style="opacity:0.998" fill="#5cbef7" d="M 329.5,31.5 C 336.833,31.5 344.167,31.5 351.5,31.5C 359.887,40.8885 368.887,49.5552 378.5,57.5C 375.804,63.8352 374.804,70.5019 375.5,77.5C 359.833,62.5 344.5,47.1667 329.5,31.5 Z"/></g>
<g><path style="opacity:0.997" fill="#5bc4f8" d="M 351.5,31.5 C 358.833,31.5 366.167,31.5 373.5,31.5C 381.167,39.5 388.833,47.5 396.5,55.5C 390.346,55.1004 384.346,55.7671 378.5,57.5C 368.887,49.5552 359.887,40.8885 351.5,31.5 Z"/></g>
<g><path style="opacity:0.998" fill="#5bcaf9" d="M 373.5,31.5 C 408.253,31.0136 442.92,31.5136 477.5,33C 478.126,33.7504 478.626,34.5838 479,35.5C 479.5,69.4984 479.667,103.498 479.5,137.5C 468.833,127.167 458.167,116.833 447.5,106.5C 447.666,100.158 447.5,93.8246 447,87.5C 446.5,83 444,80.5 439.5,80C 434.177,79.5006 428.844,79.334 423.5,79.5C 423.666,74.1563 423.499,68.8229 423,63.5C 422.5,59 420,56.5 415.5,56C 409.175,55.5005 402.842,55.3338 396.5,55.5C 388.833,47.5 381.167,39.5 373.5,31.5 Z"/></g>
<g><path style="opacity:0.958" fill="#607ae9" d="M 103.5,40.5 C 119.527,56.194 135.527,71.8607 151.5,87.5C 124.293,83.2933 108.293,67.6267 103.5,40.5 Z"/></g>
<g><path style="opacity:0.999" fill="#5db2f5" d="M 319.5,44.5 C 331.833,56.5 344.167,68.5 356.5,80.5C 354.03,82.0817 352.53,84.415 352,87.5C 351.501,92.1548 351.334,96.8215 351.5,101.5C 340.833,91.1667 330.167,80.8333 319.5,70.5C 319.5,61.8333 319.5,53.1667 319.5,44.5 Z"/></g>
<g><path style="opacity:0.992" fill="#5bbff7" d="M 412.5,112.5 C 411.448,112.649 410.448,112.483 409.5,112C 402.965,105.297 396.298,98.7973 389.5,92.5C 391.284,85.6489 391.95,78.6489 391.5,71.5C 396.833,71.5 402.167,71.5 407.5,71.5C 407.334,76.8437 407.501,82.1771 408,87.5C 408.5,92 411,94.5 415.5,95C 420.823,95.4994 426.156,95.666 431.5,95.5C 431.5,100.833 431.5,106.167 431.5,111.5C 425.122,111.295 418.789,111.628 412.5,112.5 Z"/></g>
<g><path style="opacity:0.993" fill="#5caaf3" d="M 319.5,70.5 C 330.167,80.8333 340.833,91.1667 351.5,101.5C 351.334,107.509 351.501,113.509 352,119.5C 352.5,124 355,126.5 359.5,127C 364.823,127.499 370.156,127.666 375.5,127.5C 375.334,132.844 375.501,138.177 376,143.5C 376.5,148 379,150.5 383.5,151C 389.491,151.499 395.491,151.666 401.5,151.5C 409.167,159.5 416.833,167.5 424.5,175.5C 415.5,175.5 406.5,175.5 397.5,175.5C 371.833,149.167 345.833,123.167 319.5,97.5C 319.5,88.5 319.5,79.5 319.5,70.5 Z"/></g>
<g><path style="opacity:0.993" fill="#5cb6f6" d="M 389.5,92.5 C 396.298,98.7973 402.965,105.297 409.5,112C 410.448,112.483 411.448,112.649 412.5,112.5C 410.03,114.082 408.53,116.415 408,119.5C 407.501,124.823 407.334,130.156 407.5,135.5C 402.167,135.5 396.833,135.5 391.5,135.5C 391.666,130.156 391.499,124.823 391,119.5C 390.5,115 388,112.5 383.5,112C 378.177,111.501 372.844,111.334 367.5,111.5C 367.5,106.167 367.5,100.833 367.5,95.5C 372.844,95.666 378.177,95.4994 383.5,95C 385.641,94.4275 387.641,93.5942 389.5,92.5 Z"/></g>
<g><path style="opacity:0.982" fill="#635ae3" d="M 44.5,95.5 C 49.5,100.833 54.5,106.167 59.5,111.5C 52.28,111.096 48.28,114.429 47.5,121.5C 42.1667,116.5 36.8333,111.5 31.5,106.5C 30.678,97.0496 35.0114,93.383 44.5,95.5 Z"/></g>
<g><path style="opacity:1" fill="#6260e4" d="M 44.5,95.5 C 51.8333,95.5 59.1667,95.5 66.5,95.5C 71.5,100.833 76.5,106.167 81.5,111.5C 74.1667,111.5 66.8333,111.5 59.5,111.5C 54.5,106.167 49.5,100.833 44.5,95.5 Z"/></g>
<g><path style="opacity:0.995" fill="#6268e6" d="M 66.5,95.5 C 84.1667,95.5 101.833,95.5 119.5,95.5C 119.5,98.1667 119.5,100.833 119.5,103.5C 112.113,103.286 105.113,104.786 98.5,108C 97.5,109 96.5,110 95.5,111C 90.8452,111.499 86.1785,111.666 81.5,111.5C 76.5,106.167 71.5,100.833 66.5,95.5 Z"/></g>
<g><path style="opacity:1" fill="#5e9df0" d="M 263.5,95.5 C 276.833,95.5 290.167,95.5 303.5,95.5C 303.5,100.833 303.5,106.167 303.5,111.5C 298.156,111.666 292.823,111.499 287.5,111C 284.797,107.981 281.464,105.981 277.5,105C 272.882,104.006 268.215,103.506 263.5,103.5C 263.5,100.833 263.5,98.1667 263.5,95.5 Z"/></g>
<g><path style="opacity:0.998" fill="#5da5f2" d="M 319.5,97.5 C 345.833,123.167 371.833,149.167 397.5,175.5C 392.383,175.43 387.716,176.763 383.5,179.5C 362.5,157.833 341.167,136.5 319.5,115.5C 319.5,109.5 319.5,103.5 319.5,97.5 Z"/></g>
<g><path style="opacity:0.991" fill="#6179e9" d="M 143.5,101.5 C 151.433,102.706 159.433,103.373 167.5,103.5C 191.833,128.5 216.5,153.167 241.5,177.5C 239.461,182.254 236.461,186.254 232.5,189.5C 231.761,189.631 231.094,189.464 230.5,189C 212.299,170.632 193.965,152.465 175.5,134.5C 175.822,130.253 174.989,126.253 173,122.5C 169.697,120.256 166.197,119.923 162.5,121.5C 156.167,114.833 149.833,108.167 143.5,101.5 Z"/></g>
<g><path style="opacity:0.987" fill="#607fea" d="M 167.5,103.5 C 176.167,103.5 184.833,103.5 193.5,103.5C 198.63,109.131 203.964,114.631 209.5,120C 210.448,120.483 211.448,120.649 212.5,120.5C 206.931,126.377 206.098,133.044 210,140.5C 217.131,144.35 221.631,142.35 223.5,134.5C 231.86,142.194 239.86,150.194 247.5,158.5C 246.7,165.232 244.7,171.565 241.5,177.5C 216.5,153.167 191.833,128.5 167.5,103.5 Z"/></g>
<g><path style="opacity:0.994" fill="#5f86ec" d="M 193.5,103.5 C 200.833,103.5 208.167,103.5 215.5,103.5C 225.833,114.5 236.5,125.167 247.5,135.5C 247.5,143.167 247.5,150.833 247.5,158.5C 239.86,150.194 231.86,142.194 223.5,134.5C 223.822,130.253 222.989,126.253 221,122.5C 218.435,120.821 215.602,120.154 212.5,120.5C 211.448,120.649 210.448,120.483 209.5,120C 203.964,114.631 198.63,109.131 193.5,103.5 Z"/></g>
<g><path style="opacity:1" fill="#5f8ced" d="M 215.5,103.5 C 226.167,103.5 236.833,103.5 247.5,103.5C 247.5,114.167 247.5,124.833 247.5,135.5C 236.5,125.167 225.833,114.5 215.5,103.5 Z"/></g>
<g><path style="opacity:1" fill="#6754e4" d="M 31.5,106.5 C 36.8333,111.5 42.1667,116.5 47.5,121.5C 47.5,129.833 47.5,138.167 47.5,146.5C 42.1667,141.5 36.8333,136.5 31.5,131.5C 31.5,123.167 31.5,114.833 31.5,106.5 Z"/></g>
<g><path style="opacity:0.997" fill="#5bc4f8" d="M 447.5,106.5 C 458.167,116.833 468.833,127.167 479.5,137.5C 479.5,144.833 479.5,152.167 479.5,159.5C 467.833,148.167 456.167,136.833 444.5,125.5C 447.172,119.502 448.172,113.169 447.5,106.5 Z"/></g>
<g><path style="opacity:0.997" fill="#5e9ff1" d="M 319.5,115.5 C 341.167,136.5 362.5,157.833 383.5,179.5C 379.852,182.66 375.852,185.327 371.5,187.5C 370.761,187.631 370.094,187.464 369.5,187C 352.965,170.298 336.299,153.798 319.5,137.5C 319.5,130.167 319.5,122.833 319.5,115.5 Z"/></g>
<g><path style="opacity:0.992" fill="#6266e5" d="M 107.5,119.5 C 111.5,119.5 115.5,119.5 119.5,119.5C 119.5,127.5 119.5,135.5 119.5,143.5C 115.486,143.666 111.486,143.499 107.5,143C 106.584,142.626 105.75,142.126 105,141.5C 103.424,135.612 103.091,129.612 104,123.5C 104.69,121.65 105.856,120.316 107.5,119.5 Z"/></g>
<g><path style="opacity:0.987" fill="#5f91ee" d="M 263.5,119.5 C 268.297,119.121 272.964,119.621 277.5,121C 278.126,121.75 278.626,122.584 279,123.5C 279.667,128.833 279.667,134.167 279,139.5C 278.626,140.416 278.126,141.25 277.5,142C 272.964,143.379 268.297,143.879 263.5,143.5C 263.5,135.5 263.5,127.5 263.5,119.5 Z"/></g>
<g><path style="opacity:0.997" fill="#616ce7" d="M 135.5,121.5 C 162.884,147.883 189.55,174.883 215.5,202.5C 211.429,204.635 207.095,205.968 202.5,206.5C 180.5,183.833 158.167,161.5 135.5,139.5C 135.5,133.5 135.5,127.5 135.5,121.5 Z"/></g>
<g><path style="opacity:0.993" fill="#5cbef7" d="M 444.5,125.5 C 456.167,136.833 467.833,148.167 479.5,159.5C 479.666,163.514 479.499,167.514 479,171.5C 477.728,174.222 475.561,175.556 472.5,175.5C 456.833,159.5 441.167,143.5 425.5,127.5C 431.986,127.919 438.319,127.252 444.5,125.5 Z"/></g>
<g><path style="opacity:0.986" fill="#635ae3" d="M 143.5,218.5 C 117.167,191.5 90.5,164.833 63.5,138.5C 63.5,134.833 63.5,131.167 63.5,127.5C 71.5,127.5 79.5,127.5 87.5,127.5C 87.3182,149.651 98.3182,160.318 120.5,159.5C 123.488,180.811 133.654,197.811 151,210.5C 151.667,212.5 151.667,214.5 151,216.5C 148.618,217.554 146.118,218.221 143.5,218.5 Z"/></g>
<g><path style="opacity:1" fill="#5cb8f6" d="M 425.5,127.5 C 441.167,143.5 456.833,159.5 472.5,175.5C 465.167,175.5 457.833,175.5 450.5,175.5C 441.167,165.833 431.833,156.167 422.5,146.5C 422.708,139.777 423.708,133.443 425.5,127.5 Z"/></g>
<g><path style="opacity:0.99" fill="#6172e8" d="M 143.5,101.5 C 149.833,108.167 156.167,114.833 162.5,121.5C 158.766,127.719 158.599,134.052 162,140.5C 169.131,144.35 173.631,142.35 175.5,134.5C 193.965,152.465 212.299,170.632 230.5,189C 231.094,189.464 231.761,189.631 232.5,189.5C 228.241,195.486 222.574,199.819 215.5,202.5C 189.55,174.883 162.884,147.883 135.5,121.5C 135.169,114.137 135.503,106.803 136.5,99.5C 138.729,100.577 141.063,101.244 143.5,101.5 Z"/></g>
<g><path style="opacity:0.987" fill="#5e98ef" d="M 319.5,137.5 C 336.299,153.798 352.965,170.298 369.5,187C 370.094,187.464 370.761,187.631 371.5,187.5C 359.429,196.767 346.762,204.933 333.5,212C 337.99,201.875 340.824,191.375 342,180.5C 341.126,178.224 339.459,176.89 337,176.5C 332.539,175.753 328.039,175.253 323.5,175C 322.584,174.626 321.75,174.126 321,173.5C 319.541,161.601 319.041,149.601 319.5,137.5 Z"/></g>
<g><path style="opacity:0.996" fill="#6754e4" d="M 63.5,138.5 C 90.5,164.833 117.167,191.5 143.5,218.5C 138.281,221.035 133.281,224.035 128.5,227.5C 106.86,206.194 85.1935,184.861 63.5,163.5C 63.5,155.167 63.5,146.833 63.5,138.5 Z"/></g>
<g><path style="opacity:0.98" fill="#5f93ef" d="M 304.5,168.5 C 298.224,163.893 292.557,158.559 287.5,152.5C 293.644,145.394 296.31,137.061 295.5,127.5C 298.167,127.5 300.833,127.5 303.5,127.5C 303.185,141.246 303.519,154.912 304.5,168.5 Z"/></g>
<g><path style="opacity:0.993" fill="#6266e5" d="M 135.5,139.5 C 158.167,161.5 180.5,183.833 202.5,206.5C 176.514,210.56 156.347,201.56 142,179.5C 136.016,166.837 133.85,153.504 135.5,139.5 Z"/></g>
<g><path style="opacity:0.998" fill="#5cb2f5" d="M 422.5,146.5 C 431.833,156.167 441.167,165.833 450.5,175.5C 441.833,175.5 433.167,175.5 424.5,175.5C 416.833,167.5 409.167,159.5 401.5,151.5C 408.061,152.081 414.395,151.248 420.5,149C 421.066,148.005 421.733,147.172 422.5,146.5 Z"/></g>
<g><path style="opacity:1" fill="#6f4de8" d="M 31.5,131.5 C 36.8333,136.5 42.1667,141.5 47.5,146.5C 47.5,156.5 47.5,166.5 47.5,176.5C 42.1667,171.5 36.8333,166.5 31.5,161.5C 31.5,151.5 31.5,141.5 31.5,131.5 Z"/></g>
<g><path style="opacity:0.991" fill="#5f8ced" d="M 287.5,152.5 C 292.557,158.559 298.224,163.893 304.5,168.5C 305.673,180.856 312.34,188.19 324.5,190.5C 323.242,196.609 321.575,202.609 319.5,208.5C 303.527,192.193 287.527,175.86 271.5,159.5C 277.444,158.735 282.778,156.401 287.5,152.5 Z"/></g>
<g><path style="opacity:0.992" fill="#6086ec" d="M 271.5,159.5 C 287.527,175.86 303.527,192.193 319.5,208.5C 317.637,213.421 315.971,218.421 314.5,223.5C 313.761,223.631 313.094,223.464 312.5,223C 295.299,205.632 277.965,188.465 260.5,171.5C 261.038,167.476 261.705,163.476 262.5,159.5C 265.5,159.5 268.5,159.5 271.5,159.5 Z"/></g>
<g><path style="opacity:1" fill="#7447ea" d="M 31.5,161.5 C 36.8333,166.5 42.1667,171.5 47.5,176.5C 47.5,184.833 47.5,193.167 47.5,201.5C 42.1667,196.5 36.8333,191.5 31.5,186.5C 31.5,178.167 31.5,169.833 31.5,161.5 Z"/></g>
<g><path style="opacity:0.997" fill="#6c4fe6" d="M 63.5,163.5 C 85.1935,184.861 106.86,206.194 128.5,227.5C 126.833,229.833 124.833,231.833 122.5,233.5C 121.761,233.631 121.094,233.464 120.5,233C 101.632,213.965 82.6319,195.132 63.5,176.5C 63.5,172.167 63.5,167.833 63.5,163.5 Z"/></g>
<g><path style="opacity:0.997" fill="#607fea" d="M 260.5,171.5 C 277.965,188.465 295.299,205.632 312.5,223C 313.094,223.464 313.761,223.631 314.5,223.5C 309.991,237.328 314.325,241.328 327.5,235.5C 327.389,236.117 327.056,236.617 326.5,237C 364.701,275.035 402.701,313.201 440.5,351.5C 431.833,351.5 423.167,351.5 414.5,351.5C 360.833,297.167 306.833,243.167 252.5,189.5C 255.205,183.432 257.872,177.432 260.5,171.5 Z"/></g>
<g><path style="opacity:0.995" fill="#6f4ce8" d="M 63.5,176.5 C 82.6319,195.132 101.632,213.965 120.5,233C 121.094,233.464 121.761,233.631 122.5,233.5C 120.167,237.5 117.833,241.5 115.5,245.5C 98.527,227.86 81.1937,210.527 63.5,193.5C 63.5,187.833 63.5,182.167 63.5,176.5 Z"/></g>
<g><path style="opacity:1" fill="#7a41ec" d="M 31.5,186.5 C 36.8333,191.5 42.1667,196.5 47.5,201.5C 47.5,209.833 47.5,218.167 47.5,226.5C 42.1667,221.5 36.8333,216.5 31.5,211.5C 31.5,203.167 31.5,194.833 31.5,186.5 Z"/></g>
<g><path style="opacity:0.999" fill="#6079e9" d="M 252.5,189.5 C 306.833,243.167 360.833,297.167 414.5,351.5C 407.167,351.5 399.833,351.5 392.5,351.5C 342.833,301.167 292.833,251.167 242.5,201.5C 245.844,197.46 249.177,193.46 252.5,189.5 Z"/></g>
<g><path style="opacity:0.998" fill="#5d9ff1" d="M 396.5,191.5 C 413.167,208.833 430.167,225.833 447.5,242.5C 447.5,249.833 447.5,257.167 447.5,264.5C 425.5,242.833 403.5,221.167 381.5,199.5C 385.58,195.082 390.58,192.415 396.5,191.5 Z"/></g>
<g><path style="opacity:1" fill="#5ea4f2" d="M 396.5,191.5 C 402.5,191.5 408.5,191.5 414.5,191.5C 425.167,202.833 436.167,213.833 447.5,224.5C 447.5,230.5 447.5,236.5 447.5,242.5C 430.167,225.833 413.167,208.833 396.5,191.5 Z"/></g>
<g><path style="opacity:1" fill="#5dabf3" d="M 414.5,191.5 C 425.5,191.5 436.5,191.5 447.5,191.5C 447.5,202.5 447.5,213.5 447.5,224.5C 436.167,213.833 425.167,202.833 414.5,191.5 Z"/></g>
<g><path style="opacity:1" fill="#5cb2f5" d="M 479.5,229.5 C 474.167,224.5 468.833,219.5 463.5,214.5C 463.5,206.833 463.5,199.167 463.5,191.5C 468.608,191.57 473.608,190.903 478.5,189.5C 479.499,202.817 479.833,216.15 479.5,229.5 Z"/></g>
<g><path style="opacity:0.994" fill="#7448ea" d="M 63.5,193.5 C 81.1937,210.527 98.527,227.86 115.5,245.5C 115.557,251.806 112.557,255.139 106.5,255.5C 92.5,240.833 78.1667,226.5 63.5,212.5C 63.5,206.167 63.5,199.833 63.5,193.5 Z"/></g>
<g><path style="opacity:0.996" fill="#5e99ef" d="M 381.5,199.5 C 403.5,221.167 425.5,242.833 447.5,264.5C 447.5,273.167 447.5,281.833 447.5,290.5C 420.701,264.202 394.035,237.702 367.5,211C 366.552,210.517 365.552,210.351 364.5,210.5C 369.892,206.447 375.559,202.78 381.5,199.5 Z"/></g>
<g><path style="opacity:0.99" fill="#6173e8" d="M 242.5,201.5 C 292.833,251.167 342.833,301.167 392.5,351.5C 385.167,351.5 377.833,351.5 370.5,351.5C 350.167,330.5 329.5,309.833 308.5,289.5C 301.359,271.529 288.526,259.529 270,253.5C 264.226,234.059 251.559,221.726 232,216.5C 231.333,214.5 231.333,212.5 232,210.5C 235.667,207.664 239.167,204.664 242.5,201.5 Z"/></g>
<g><path style="opacity:0.998" fill="#5e92ee" d="M 364.5,210.5 C 365.552,210.351 366.552,210.517 367.5,211C 394.035,237.702 420.701,264.202 447.5,290.5C 447.5,297.833 447.5,305.167 447.5,312.5C 416.368,281.868 385.368,251.035 354.5,220C 353.552,219.517 352.552,219.351 351.5,219.5C 355.535,216.143 359.868,213.143 364.5,210.5 Z"/></g>
<g><path style="opacity:1" fill="#803bef" d="M 31.5,211.5 C 36.8333,216.5 42.1667,221.5 47.5,226.5C 47.5,234.167 47.5,241.833 47.5,249.5C 42.1667,244.5 36.8333,239.5 31.5,234.5C 31.5,226.833 31.5,219.167 31.5,211.5 Z"/></g>
<g><path style="opacity:0.993" fill="#7943ec" d="M 63.5,212.5 C 78.1667,226.5 92.5,240.833 106.5,255.5C 101.841,258.163 97.1746,260.83 92.5,263.5C 82.5526,254.889 72.8859,245.889 63.5,236.5C 63.5,228.5 63.5,220.5 63.5,212.5 Z"/></g>
<g><path style="opacity:0.974" fill="#635ae3" d="M 168.5,219.5 C 178.886,230.887 189.886,241.554 201.5,251.5C 198.341,253.004 195.007,254.337 191.5,255.5C 180.608,251.816 169.941,247.649 159.5,243C 163.864,235.407 166.531,227.241 167.5,218.5C 168.107,218.624 168.44,218.957 168.5,219.5 Z"/></g>
<g><path style="opacity:0.974" fill="#6260e4" d="M 168.5,219.5 C 175.685,221.536 183.018,222.536 190.5,222.5C 193.953,223.584 196.953,225.584 199.5,228.5C 205.441,234.29 211.107,240.29 216.5,246.5C 211.574,248.364 206.574,250.031 201.5,251.5C 189.886,241.554 178.886,230.887 168.5,219.5 Z"/></g>
<g><path style="opacity:0.957" fill="#6165e5" d="M 216.5,246.5 C 211.107,240.29 205.441,234.29 199.5,228.5C 196.953,225.584 193.953,223.584 190.5,222.5C 199.129,222.974 207.462,221.641 215.5,218.5C 216.378,227.133 219.044,235.133 223.5,242.5C 221.434,244.199 219.1,245.532 216.5,246.5 Z"/></g>
<g><path style="opacity:0.999" fill="#5f8ced" d="M 351.5,219.5 C 352.552,219.351 353.552,219.517 354.5,220C 385.368,251.035 416.368,281.868 447.5,312.5C 447.5,320.167 447.5,327.833 447.5,335.5C 411.701,300.201 376.035,264.701 340.5,229C 339.552,228.517 338.552,228.351 337.5,228.5C 341.819,225.004 346.485,222.004 351.5,219.5 Z"/></g>
<g><path style="opacity:0.998" fill="#6086ec" d="M 337.5,228.5 C 338.552,228.351 339.552,228.517 340.5,229C 376.035,264.701 411.701,300.201 447.5,335.5C 447.5,340.833 447.5,346.167 447.5,351.5C 445.167,351.5 442.833,351.5 440.5,351.5C 402.701,313.201 364.701,275.035 326.5,237C 327.056,236.617 327.389,236.117 327.5,235.5C 330.446,232.687 333.779,230.354 337.5,228.5 Z"/></g>
<g><path style="opacity:1" fill="#5daaf3" d="M 463.5,214.5 C 468.833,219.5 474.167,224.5 479.5,229.5C 479.5,238.5 479.5,247.5 479.5,256.5C 474.167,251.5 468.833,246.5 463.5,241.5C 463.5,232.5 463.5,223.5 463.5,214.5 Z"/></g>
<g><path style="opacity:0.758" fill="#6068e8" d="M 235.5,233.5 C 242.229,236.362 247.563,240.862 251.5,247C 243.937,245.28 238.604,240.78 235.5,233.5 Z"/></g>
<g><path style="opacity:1" fill="#8636f1" d="M 31.5,234.5 C 36.8333,239.5 42.1667,244.5 47.5,249.5C 47.5,257.833 47.5,266.167 47.5,274.5C 42.1667,269.5 36.8333,264.5 31.5,259.5C 31.5,251.167 31.5,242.833 31.5,234.5 Z"/></g>
<g><path style="opacity:0.786" fill="#694ee7" d="M 145.5,233.5 C 147.028,233.517 147.528,234.184 147,235.5C 143.401,241.691 138.235,245.524 131.5,247C 135.113,241.369 139.78,236.869 145.5,233.5 Z"/></g>
<g><path style="opacity:0.989" fill="#7f3cef" d="M 63.5,236.5 C 72.8859,245.889 82.5526,254.889 92.5,263.5C 87.0479,268.609 82.3813,274.276 78.5,280.5C 73.5,275.833 68.5,271.167 63.5,266.5C 63.5,256.5 63.5,246.5 63.5,236.5 Z"/></g>
<g><path style="opacity:0.951" fill="#6b4fe7" d="M 147.5,255.5 C 157.16,258.165 166.494,261.665 175.5,266C 171.347,269.575 167.014,272.909 162.5,276C 161.5,276.667 160.5,276.667 159.5,276C 155.359,270.224 150.859,264.724 146,259.5C 145.516,257.807 146.016,256.473 147.5,255.5 Z"/></g>
<g><path style="opacity:0.941" fill="#625fe4" d="M 232.5,255.5 C 235.757,255.174 237.257,256.507 237,259.5C 232.141,264.724 227.641,270.224 223.5,276C 222.5,276.667 221.5,276.667 220.5,276C 215.986,272.909 211.653,269.575 207.5,266C 215.892,262.465 224.226,258.965 232.5,255.5 Z"/></g>
<g><path style="opacity:1" fill="#5ea1f1" d="M 463.5,241.5 C 468.833,246.5 474.167,251.5 479.5,256.5C 479.5,269.833 479.5,283.167 479.5,296.5C 474.167,291.5 468.833,286.5 463.5,281.5C 463.5,268.167 463.5,254.833 463.5,241.5 Z"/></g>
<g><path style="opacity:0.938" fill="#7446ea" d="M 165.5,336.5 C 163.246,335.585 161.246,334.252 159.5,332.5C 159.76,324.383 158.927,316.383 157,308.5C 152.563,298.115 144.896,291.449 134,288.5C 131.679,280.884 129.512,273.217 127.5,265.5C 128.723,264.386 130.056,264.219 131.5,265C 139.545,274.042 147.211,283.376 154.5,293C 157.03,294.422 159.697,294.755 162.5,294C 164.833,292.5 167.167,291 169.5,289.5C 171.885,291.884 173.885,294.55 175.5,297.5C 172.008,310.47 168.674,323.47 165.5,336.5 Z"/></g>
<g><path style="opacity:0.929" fill="#6853e5" d="M 189.5,273.5 C 194.007,274.761 198.007,277.094 201.5,280.5C 198.589,287.154 193.589,289.32 186.5,287C 184.954,284.743 183.288,282.576 181.5,280.5C 184.239,278.149 186.905,275.816 189.5,273.5 Z"/></g>
<g><path style="opacity:0.934" fill="#6261e4" d="M 241.5,294.5 C 239.906,291.236 237.573,288.569 234.5,286.5C 238.759,280.396 243.259,274.396 248,268.5C 249.715,265.603 252.215,264.269 255.5,264.5C 255.666,270.176 255.499,275.843 255,281.5C 249.31,284.692 244.81,289.025 241.5,294.5 Z"/></g>
<g><path style="opacity:0.952" fill="#6168e6" d="M 295.5,324.5 C 291.833,321.167 288.167,317.833 284.5,314.5C 289.692,299.904 285.525,288.904 272,281.5C 271.175,277.789 271.341,274.122 272.5,270.5C 284.178,276.012 291.678,285.012 295,297.5C 295.5,306.494 295.666,315.494 295.5,324.5 Z"/></g>
<g><path style="opacity:0.97" fill="#7f3dee" d="M 100.5,302.5 C 96.8333,299.167 93.1667,295.833 89.5,292.5C 94.1449,281.855 101.812,274.188 112.5,269.5C 114.733,275.932 116.733,282.432 118.5,289C 111.465,292.212 105.465,296.712 100.5,302.5 Z"/></g>
<g><path style="opacity:1" fill="#5e99ef" d="M 463.5,281.5 C 468.833,286.5 474.167,291.5 479.5,296.5C 479.5,305.167 479.5,313.833 479.5,322.5C 474.167,317.5 468.833,312.5 463.5,307.5C 463.5,298.833 463.5,290.167 463.5,281.5 Z"/></g>
<g><path style="opacity:0.993" fill="#6655e4" d="M 234.5,286.5 C 237.573,288.569 239.906,291.236 241.5,294.5C 238.441,305.045 240.775,314.045 248.5,321.5C 257.445,331.781 266.778,341.781 276.5,351.5C 268.167,351.5 259.833,351.5 251.5,351.5C 238.5,337.833 225.167,324.5 211.5,311.5C 210.173,306.862 208.84,302.196 207.5,297.5C 209.115,294.55 211.115,291.884 213.5,289.5C 217.077,293.293 221.411,294.793 226.5,294C 229.277,291.608 231.943,289.108 234.5,286.5 Z"/></g>
<g><path style="opacity:1" fill="#902cf6" d="M 31.5,259.5 C 36.8333,264.5 42.1667,269.5 47.5,274.5C 47.5,291.167 47.5,307.833 47.5,324.5C 42.1667,319.5 36.8333,314.5 31.5,309.5C 31.5,292.833 31.5,276.167 31.5,259.5 Z"/></g>
<g><path style="opacity:0.946" fill="#6260e3" d="M 259.5,295.5 C 270.86,294.71 274.193,299.543 269.5,310C 258.964,313.997 254.464,310.497 256,299.5C 256.69,297.65 257.856,296.316 259.5,295.5 Z"/></g>
<g><path style="opacity:0.996" fill="#616de7" d="M 308.5,289.5 C 329.5,309.833 350.167,330.5 370.5,351.5C 362.833,351.5 355.167,351.5 347.5,351.5C 335.833,339.167 323.833,327.167 311.5,315.5C 311.158,306.746 310.158,298.079 308.5,289.5 Z"/></g>
<g><path style="opacity:1" fill="#8c30f4" d="M 63.5,266.5 C 68.5,271.167 73.5,275.833 78.5,280.5C 74.3669,288.992 72.2003,297.992 72,307.5C 71.5001,322.163 71.3334,336.83 71.5,351.5C 68.8333,351.5 66.1667,351.5 63.5,351.5C 63.5,323.167 63.5,294.833 63.5,266.5 Z"/></g>
<g><path style="opacity:0.985" fill="#6c4fe7" d="M 211.5,311.5 C 225.167,324.5 238.5,337.833 251.5,351.5C 241.494,351.666 231.494,351.5 221.5,351C 217.779,337.949 214.445,324.782 211.5,311.5 Z"/></g>
<g><path style="opacity:1" fill="#6267e5" d="M 311.5,315.5 C 323.833,327.167 335.833,339.167 347.5,351.5C 335.5,351.5 323.5,351.5 311.5,351.5C 311.5,339.5 311.5,327.5 311.5,315.5 Z"/></g>
<g><path style="opacity:0.999" fill="#8339f0" d="M 159.5,332.5 C 161.246,334.252 163.246,335.585 165.5,336.5C 164.398,341.409 163.065,346.243 161.5,351C 148.838,351.5 136.171,351.667 123.5,351.5C 121.167,348.833 118.833,346.167 116.5,343.5C 117.5,343.5 118.5,343.5 119.5,343.5C 119.5,338.167 119.5,332.833 119.5,327.5C 116.833,327.5 114.167,327.5 111.5,327.5C 108.825,310.013 116.158,302.18 133.5,304C 142.896,309.048 146.23,316.882 143.5,327.5C 140.833,327.5 138.167,327.5 135.5,327.5C 135.5,332.833 135.5,338.167 135.5,343.5C 141.925,343.87 148.258,343.37 154.5,342C 157.758,339.763 159.425,336.597 159.5,332.5 Z"/></g>
<g><path style="opacity:0.951" fill="#7447ea" d="M 189.5,303.5 C 191.144,303.286 192.644,303.62 194,304.5C 197.994,320.144 201.828,335.81 205.5,351.5C 196.167,351.5 186.833,351.5 177.5,351.5C 181.192,335.4 185.192,319.4 189.5,303.5 Z"/></g>
<g><path style="opacity:0.988" fill="#8b31f3" d="M 89.5,292.5 C 93.1667,295.833 96.8333,299.167 100.5,302.5C 95.6065,314.12 94.4398,326.12 97,338.5C 98.339,341.094 100.506,342.594 103.5,343C 107.821,343.499 112.154,343.666 116.5,343.5C 118.833,346.167 121.167,348.833 123.5,351.5C 111.5,351.5 99.5,351.5 87.5,351.5C 87.3334,333.497 87.5001,315.497 88,297.5C 88.6077,295.846 89.1077,294.179 89.5,292.5 Z"/></g>
<g><path style="opacity:0.987" fill="#625be3" d="M 284.5,314.5 C 288.167,317.833 291.833,321.167 295.5,324.5C 295.5,333.5 295.5,342.5 295.5,351.5C 289.167,351.5 282.833,351.5 276.5,351.5C 266.778,341.781 257.445,331.781 248.5,321.5C 262.657,330.469 274.657,328.135 284.5,314.5 Z"/></g>
<g><path style="opacity:1" fill="#5f8eed" d="M 463.5,307.5 C 468.833,312.5 474.167,317.5 479.5,322.5C 479.5,337.5 479.5,352.5 479.5,367.5C 474.167,362.5 468.833,357.5 463.5,352.5C 463.5,337.5 463.5,322.5 463.5,307.5 Z"/></g>
<g><path style="opacity:0.995" fill="#9e1ffb" d="M 31.5,309.5 C 36.8333,314.5 42.1667,319.5 47.5,324.5C 47.3335,336.171 47.5001,347.838 48,359.5C 48.5,364 51,366.5 55.5,367C 67.1619,367.5 78.8286,367.667 90.5,367.5C 98.1667,375.5 105.833,383.5 113.5,391.5C 86.7444,391.982 60.0777,391.482 33.5,390C 32.8742,389.25 32.3742,388.416 32,387.5C 31.5,361.502 31.3334,335.502 31.5,309.5 Z"/></g>
<g><path style="opacity:0.988" fill="#6086ec" d="M 463.5,352.5 C 468.833,357.5 474.167,362.5 479.5,367.5C 479.666,374.175 479.5,380.842 479,387.5C 478.722,388.416 478.222,389.082 477.5,389.5C 470.891,381.554 463.891,373.887 456.5,366.5C 458.17,366.249 459.67,365.582 461,364.5C 462.989,360.747 463.822,356.747 463.5,352.5 Z"/></g>
<g><path style="opacity:1" fill="#8e2ef5" d="M 90.5,367.5 C 107.167,367.5 123.833,367.5 140.5,367.5C 148.167,375.5 155.833,383.5 163.5,391.5C 146.833,391.5 130.167,391.5 113.5,391.5C 105.833,383.5 98.1667,375.5 90.5,367.5 Z"/></g>
<g><path style="opacity:1" fill="#8636f1" d="M 140.5,367.5 C 148.833,367.5 157.167,367.5 165.5,367.5C 173.167,375.5 180.833,383.5 188.5,391.5C 180.167,391.5 171.833,391.5 163.5,391.5C 155.833,383.5 148.167,375.5 140.5,367.5 Z"/></g>
<g><path style="opacity:1" fill="#803bef" d="M 165.5,367.5 C 173.167,367.5 180.833,367.5 188.5,367.5C 196.167,375.5 203.833,383.5 211.5,391.5C 203.833,391.5 196.167,391.5 188.5,391.5C 180.833,383.5 173.167,375.5 165.5,367.5 Z"/></g>
<g><path style="opacity:1" fill="#7a41ec" d="M 188.5,367.5 C 196.833,367.5 205.167,367.5 213.5,367.5C 221.167,375.5 228.833,383.5 236.5,391.5C 228.167,391.5 219.833,391.5 211.5,391.5C 203.833,383.5 196.167,375.5 188.5,367.5 Z"/></g>
<g><path style="opacity:1" fill="#7447ea" d="M 213.5,367.5 C 221.833,367.5 230.167,367.5 238.5,367.5C 246.167,375.5 253.833,383.5 261.5,391.5C 253.167,391.5 244.833,391.5 236.5,391.5C 228.833,383.5 221.167,375.5 213.5,367.5 Z"/></g>
<g><path style="opacity:1" fill="#6e4de7" d="M 238.5,367.5 C 248.5,367.5 258.5,367.5 268.5,367.5C 276.167,375.5 283.833,383.5 291.5,391.5C 281.5,391.5 271.5,391.5 261.5,391.5C 253.833,383.5 246.167,375.5 238.5,367.5 Z"/></g>
<g><path style="opacity:1" fill="#6754e4" d="M 268.5,367.5 C 276.833,367.5 285.167,367.5 293.5,367.5C 301.167,375.5 308.833,383.5 316.5,391.5C 308.167,391.5 299.833,391.5 291.5,391.5C 283.833,383.5 276.167,375.5 268.5,367.5 Z"/></g>
<g><path style="opacity:1" fill="#635ae3" d="M 293.5,367.5 C 301.167,367.5 308.833,367.5 316.5,367.5C 324.167,375.5 331.833,383.5 339.5,391.5C 331.833,391.5 324.167,391.5 316.5,391.5C 308.833,383.5 301.167,375.5 293.5,367.5 Z"/></g>
<g><path style="opacity:1" fill="#6260e4" d="M 316.5,367.5 C 323.833,367.5 331.167,367.5 338.5,367.5C 346.167,375.5 353.833,383.5 361.5,391.5C 354.167,391.5 346.833,391.5 339.5,391.5C 331.833,383.5 324.167,375.5 316.5,367.5 Z"/></g>
<g><path style="opacity:1" fill="#6266e5" d="M 338.5,367.5 C 347.167,367.5 355.833,367.5 364.5,367.5C 372.167,375.5 379.833,383.5 387.5,391.5C 378.833,391.5 370.167,391.5 361.5,391.5C 353.833,383.5 346.167,375.5 338.5,367.5 Z"/></g>
<g><path style="opacity:1" fill="#616de7" d="M 364.5,367.5 C 372.167,367.5 379.833,367.5 387.5,367.5C 395.167,375.5 402.833,383.5 410.5,391.5C 402.833,391.5 395.167,391.5 387.5,391.5C 379.833,383.5 372.167,375.5 364.5,367.5 Z"/></g>
<g><path style="opacity:1" fill="#6173e8" d="M 387.5,367.5 C 394.833,367.5 402.167,367.5 409.5,367.5C 417.167,375.5 424.833,383.5 432.5,391.5C 425.167,391.5 417.833,391.5 410.5,391.5C 402.833,383.5 395.167,375.5 387.5,367.5 Z"/></g>
<g><path style="opacity:1" fill="#6179e9" d="M 409.5,367.5 C 416.833,367.5 424.167,367.5 431.5,367.5C 439.167,375.5 446.833,383.5 454.5,391.5C 447.167,391.5 439.833,391.5 432.5,391.5C 424.833,383.5 417.167,375.5 409.5,367.5 Z"/></g>
<g><path style="opacity:0.996" fill="#607fea" d="M 456.5,366.5 C 463.891,373.887 470.891,381.554 477.5,389.5C 477.082,390.222 476.416,390.722 475.5,391C 468.508,391.5 461.508,391.666 454.5,391.5C 446.833,383.5 439.167,375.5 431.5,367.5C 439.918,367.802 448.252,367.469 456.5,366.5 Z"/></g>
<g><path style="opacity:1" fill="#813bef" d="M 228.5,407.5 C 238.833,418.167 249.167,428.833 259.5,439.5C 244.833,439.5 230.167,439.5 215.5,439.5C 215.5,428.833 215.5,418.167 215.5,407.5C 219.833,407.5 224.167,407.5 228.5,407.5 Z"/></g>
<g><path style="opacity:1" fill="#7a41ec" d="M 228.5,407.5 C 236.833,407.5 245.167,407.5 253.5,407.5C 263.833,418.167 274.167,428.833 284.5,439.5C 276.167,439.5 267.833,439.5 259.5,439.5C 249.167,428.833 238.833,418.167 228.5,407.5 Z"/></g>
<g><path style="opacity:1" fill="#7448ea" d="M 253.5,407.5 C 267.5,407.5 281.5,407.5 295.5,407.5C 295.5,418.167 295.5,428.833 295.5,439.5C 291.833,439.5 288.167,439.5 284.5,439.5C 274.167,428.833 263.833,418.167 253.5,407.5 Z"/></g>
<g><path style="opacity:1" fill="#9329f7" d="M 203.5,455.5 C 211.167,463.5 218.833,471.5 226.5,479.5C 212.167,479.5 197.833,479.5 183.5,479.5C 183.5,471.5 183.5,463.5 183.5,455.5C 190.167,455.5 196.833,455.5 203.5,455.5 Z"/></g>
<g><path style="opacity:1" fill="#8c30f4" d="M 203.5,455.5 C 211.833,455.5 220.167,455.5 228.5,455.5C 236.167,463.5 243.833,471.5 251.5,479.5C 243.167,479.5 234.833,479.5 226.5,479.5C 218.833,471.5 211.167,463.5 203.5,455.5 Z"/></g>
<g><path style="opacity:1" fill="#8636f1" d="M 228.5,455.5 C 236.833,455.5 245.167,455.5 253.5,455.5C 261.167,463.5 268.833,471.5 276.5,479.5C 268.167,479.5 259.833,479.5 251.5,479.5C 243.833,471.5 236.167,463.5 228.5,455.5 Z"/></g>
<g><path style="opacity:1" fill="#803bef" d="M 253.5,455.5 C 261.167,455.5 268.833,455.5 276.5,455.5C 284.167,463.5 291.833,471.5 299.5,479.5C 291.833,479.5 284.167,479.5 276.5,479.5C 268.833,471.5 261.167,463.5 253.5,455.5 Z"/></g>
<g><path style="opacity:1" fill="#7943ec" d="M 276.5,455.5 C 293.5,455.5 310.5,455.5 327.5,455.5C 327.5,463.5 327.5,471.5 327.5,479.5C 318.167,479.5 308.833,479.5 299.5,479.5C 291.833,471.5 284.167,463.5 276.5,455.5 Z"/></g>
</svg>
